<svg width="28" height="30" viewBox="0 0 28 30" fill="none" xmlns="http://www.w3.org/2000/svg">
<g filter="url(#filter0_d_1_1456)">
<path d="M14 2C8.48 2 4 6.48 4 12C4 17.52 8.48 22 14 22C19.52 22 24 17.52 24 12C24 6.48 19.52 2 14 2ZM15 19H13V17H15V19ZM17.07 11.25L16.17 12.17C15.45 12.9 15 13.5 15 15H13V14.5C13 13.4 13.45 12.4 14.17 11.67L15.41 10.41C15.78 10.05 16 9.55 16 9C16 7.9 15.1 7 14 7C12.9 7 12 7.9 12 9H10C10 6.79 11.79 5 14 5C16.21 5 18 6.79 18 9C18 9.88 17.64 10.68 17.07 11.25Z" fill="black"/>
</g>
<defs>
<filter id="filter0_d_1_1456" x="-2" y="0" width="32" height="32" filterUnits="userSpaceOnUse" color-interpolation-filters="sRGB">
<feFlood flood-opacity="0" result="BackgroundImageFix"/>
<feColorMatrix in="SourceAlpha" type="matrix" values="0 0 0 0 0 0 0 0 0 0 0 0 0 0 0 0 0 0 127 0" result="hardAlpha"/>
<feOffset dy="4"/>
<feGaussianBlur stdDeviation="2"/>
<feComposite in2="hardAlpha" operator="out"/>
<feColorMatrix type="matrix" values="0 0 0 0 0 0 0 0 0 0 0 0 0 0 0 0 0 0 0.25 0"/>
<feBlend mode="normal" in2="BackgroundImageFix" result="effect1_dropShadow_1_1456"/>
<feBlend mode="normal" in="SourceGraphic" in2="effect1_dropShadow_1_1456" result="shape"/>
</filter>
</defs>
</svg>
